<svg width="26" height="26" viewBox="0 0 26 26" fill="none" xmlns="http://www.w3.org/2000/svg">
    <circle cx="13" cy="13" r="13" fill="#1BC19A"/>
    <g clip-path="url(#clip0_19_15897)">
        <path fill-rule="evenodd" clip-rule="evenodd" d="M12.969 5.33354H12.0124C11.8175 5.33354 11.3321 5.37602 10.9494 5.54593L10.9494 5.54594C10.4711 5.75833 10.4711 5.75833 10.3116 5.81143C10.2465 5.83313 10.0392 5.79273 9.75522 5.73737C9.34443 5.6573 8.77308 5.54593 8.23888 5.54593C7.33537 5.54593 5.74094 6.8734 4.83743 8.25397C3.93392 9.63454 3.66818 10.6965 4.78428 11.5992C5.02499 11.7939 5.24592 11.9663 5.45134 12.1267C6.1984 12.7098 6.74031 13.1328 7.28222 13.8824C7.97314 14.8382 8.45147 14.8382 9.03609 14.8382H9.99275C9.99275 15.5398 9.87351 17.2078 9.40445 18.431L10.1226 18.8071L10.2824 18.5408L10.389 18.594V18.8071L10.6811 18.9323C11.0851 18.2212 11.334 17.4665 11.4277 17.0684C11.534 17.3693 11.7891 18.2684 11.9592 19.4578C12.1293 20.6472 12.1718 21.1924 12.1718 21.3163C11.9946 21.3163 11.6722 21.4118 11.7998 21.7941C11.9592 22.272 12.9159 22.5906 13.6068 21.7411C14.1595 21.0614 14.4749 18.3073 14.5635 17.0153C14.7583 17.5639 15.3394 18.8843 16.1047 19.7764C16.8701 20.6685 18.0181 21.1039 18.4964 21.2101L18.4432 20.9446L17.9118 20.626L18.0181 20.3605C17.6283 20.0419 16.785 19.0436 16.5299 17.5993C16.2748 16.1551 16.1756 15.1568 16.1579 14.8382H17.274C17.6283 14.8382 18.4007 14.7108 18.6558 14.201C18.9747 13.5638 19.5593 12.6081 20.8349 11.8647C22.1104 11.1213 22.3762 10.0593 21.6852 8.89115C20.9943 7.72298 19.9314 6.44861 19.0279 5.91762C18.3452 5.51645 17.8446 5.60023 17.3198 5.68807C17.1499 5.7165 16.9776 5.74535 16.7957 5.75833C16.6527 5.76853 16.5274 5.78265 16.4141 5.79543C15.9377 5.84912 15.6735 5.87889 15.2012 5.49283C14.8965 5.31886 14.4135 5.32301 13.5769 5.33021C13.3921 5.3318 13.1902 5.33354 12.969 5.33354Z" fill="white"/>
        <path fill-rule="evenodd" clip-rule="evenodd" d="M10.6126 14.1175L11.4083 15.0172C11.1961 14.0857 11.5321 12.7591 11.7266 12.2123C11.6559 12.4945 11.5144 13.1225 11.5144 13.3766C11.5144 13.6941 11.5144 14.435 11.7266 15.3347C11.7965 15.6312 11.878 15.8988 11.9633 16.1794C12.137 16.7506 12.327 17.3752 12.4693 18.4043C12.6334 19.591 12.6849 20.5547 12.6881 20.9046C12.6861 21.0199 12.6667 21.2609 12.6264 21.4209C12.5838 21.5903 12.431 21.6679 12.36 21.6856L12.5198 21.8443C12.6974 21.8267 12.9695 21.7682 13.2125 21.5268C13.3723 21.368 13.5408 21.0975 13.5408 20.8858C13.5408 20.5683 13.5727 19.6321 13.7425 18.4043C13.8848 17.3752 14.0748 16.7506 14.2485 16.1794C14.3338 15.8988 14.4153 15.6312 14.4852 15.3347C14.6974 14.435 14.6974 13.6941 14.6974 13.3766C14.6974 13.1225 14.5559 12.4945 14.4852 12.2123C14.6797 12.7591 15.0157 14.0857 14.8035 15.0172L15.5992 14.1175C15.4577 13.8176 15.1218 12.9955 14.9096 12.1064C14.6443 10.995 14.8565 9.98947 15.1218 9.46024C15.3339 9.03685 15.7053 8.5429 15.8644 8.34884C15.6169 8.70167 15.1111 9.54491 15.0687 10.0953C15.0263 10.6457 15.051 10.8892 15.0687 10.9421C15.1218 10.7657 15.2703 10.3917 15.44 10.307C15.6522 10.2012 16.1297 10.4658 15.9705 10.8892C15.8432 11.2279 15.4931 11.3478 15.3339 11.3655C15.387 11.4184 15.5355 11.5243 15.7053 11.5243C15.875 11.5243 15.9882 11.3831 16.0236 11.3126C16.0059 11.4008 15.9281 11.6089 15.7583 11.7359C15.5886 11.863 15.44 11.93 15.387 11.9476C15.387 11.9829 15.4188 12.0641 15.5461 12.1064C15.6735 12.1487 15.8468 12.1593 15.9175 12.1593C15.8821 12.2475 15.7689 12.4345 15.5992 12.4769C15.4294 12.5192 15.3516 12.4592 15.3339 12.424C15.3516 12.5474 15.44 12.7838 15.6522 12.7415C15.9175 12.6886 16.2358 12.3181 16.2888 11.4713C16.3419 10.6246 16.2358 10.307 16.0766 10.0953C15.9175 9.88362 15.7053 9.88362 15.5461 9.88362C15.4188 9.88362 15.2809 10.0248 15.2278 10.0953C15.2809 9.95419 15.4719 9.68251 15.8114 9.72485C15.9811 9.76719 16.0943 9.88362 16.1297 9.93655C16.1297 9.84834 16.0978 9.62959 15.9705 9.46024C15.9636 9.45107 15.9568 9.4421 15.9502 9.43329C15.8028 9.23868 15.7145 9.12207 15.9175 8.66638C16.1297 8.19007 16.2888 7.76668 16.1297 7.02576C15.9705 6.28483 15.0687 5.96729 14.6974 5.96729H13.1592H13.1059H11.5144C11.1431 5.96729 10.2413 6.28483 10.0821 7.02576C9.92299 7.76668 10.0821 8.19007 10.2943 8.66638C10.4973 9.12207 10.409 9.23868 10.2616 9.43329C10.255 9.4421 10.2482 9.45107 10.2413 9.46024C10.114 9.62959 10.0821 9.84834 10.0821 9.93655C10.1175 9.88362 10.2307 9.76719 10.4004 9.72485C10.7399 9.68251 10.9309 9.95419 10.984 10.0953C10.9309 10.0248 10.793 9.88362 10.6657 9.88362C10.5065 9.88362 10.2943 9.88362 10.1352 10.0953C9.97603 10.307 9.86993 10.6246 9.92298 11.4713C9.97603 12.3181 10.2943 12.6886 10.5596 12.7415C10.7718 12.7838 10.8602 12.5474 10.8779 12.424C10.8602 12.4592 10.7824 12.5192 10.6126 12.4769C10.4429 12.4345 10.3297 12.2475 10.2943 12.1593C10.3651 12.1593 10.5383 12.1487 10.6657 12.1064C10.793 12.0641 10.8248 11.9829 10.8248 11.9476C10.7718 11.93 10.6232 11.863 10.4535 11.7359C10.2837 11.6089 10.2059 11.4008 10.1882 11.3126C10.2236 11.3831 10.3368 11.5243 10.5065 11.5243C10.6763 11.5243 10.8248 11.4184 10.8779 11.3655C10.7187 11.3478 10.3686 11.2279 10.2413 10.8892C10.0821 10.4658 10.5596 10.2012 10.7718 10.307C10.9415 10.3917 11.09 10.7657 11.1431 10.9421C11.1608 10.8892 11.1855 10.6457 11.1431 10.0953C11.1007 9.54491 10.5949 8.70167 10.3474 8.34884C10.5065 8.5429 10.8779 9.03685 11.09 9.46024C11.3553 9.98947 11.5675 10.995 11.3022 12.1064C11.09 12.9955 10.7541 13.8176 10.6126 14.1175Z" fill="#1BC19A"/>
        <path d="M8.25368 7.68506C7.55909 8.13699 6.98526 8.79396 6.77274 9.08181C7.12247 8.62213 8.42694 8.42681 9.08283 9.25446C9.74614 10.0915 9.52504 10.5623 8.86173 11.8178C8.33108 12.8222 8.53007 13.8057 8.6959 14.1719C8.36424 13.6487 7.4356 12.4246 6.37431 11.7132C5.0477 10.8238 4.55021 10.8238 5.15825 8.99288C5.76628 7.16193 7.97731 6.06336 8.58534 6.32492C9.19337 6.58649 9.1381 7.10962 8.25368 7.68506Z" fill="#1BC19A"/>
        <path d="M17.9592 7.68506C18.6538 8.13699 19.2276 8.79396 19.4402 9.08181C19.0904 8.62213 17.7859 8.42681 17.1301 9.25446C16.4668 10.0915 16.6879 10.5623 17.3512 11.8178C17.8818 12.8222 17.6828 13.8057 17.517 14.1719C17.8486 13.6487 18.7773 12.4246 19.8386 11.7132C21.1652 10.8238 21.6627 10.8238 21.0546 8.99288C20.4466 7.16193 18.2356 6.06336 17.6276 6.32492C17.0195 6.58649 17.0748 7.10962 17.9592 7.68506Z" fill="#1BC19A"/>
        <path fill-rule="evenodd" clip-rule="evenodd" d="M9.88867 18.1519L10.1226 18.2744L10.2825 18.008L10.389 18.0613V18.1887C10.4405 18.0695 10.489 17.9468 10.5336 17.8208C11.0121 16.4701 11.2404 15.7807 11.2948 15.6048L10.6967 15.0244C10.5766 15.5907 10.2549 16.9679 9.88867 18.1519Z" fill="#1BC19A"/>
        <path d="M16.386 18.3484C15.9945 17.1243 15.643 15.6224 15.5161 15.0244L14.9181 15.6048C14.9725 15.7807 15.2008 16.4701 15.6792 17.8208C16.1576 19.1715 17.0746 20.1423 17.4733 20.4588L17.582 20.3006C17.3464 20.1599 16.7774 19.5724 16.386 18.3484Z" fill="#1BC19A"/>
        <path fill-rule="evenodd" clip-rule="evenodd" d="M10.7148 6.80175C10.7638 6.76909 10.777 6.70291 10.7444 6.65393C10.7117 6.60494 10.6456 6.5917 10.5966 6.62436C10.4456 6.72506 10.3543 6.86982 10.3009 7.00417C10.2478 7.13799 10.2295 7.26864 10.2295 7.35265C10.2295 7.41152 10.2772 7.45925 10.336 7.45925C10.3949 7.45925 10.4426 7.41152 10.4426 7.35265C10.4426 7.29452 10.4562 7.19066 10.499 7.08285C10.5416 6.97558 10.6101 6.87161 10.7148 6.80175ZM15.4983 6.85505C15.4493 6.82239 15.4361 6.75621 15.4687 6.70722C15.5013 6.65824 15.5675 6.645 15.6165 6.67766C15.7675 6.77836 15.8588 6.92312 15.9121 7.05747C15.9652 7.19129 15.9836 7.32194 15.9836 7.40595C15.9836 7.46482 15.9359 7.51255 15.877 7.51255C15.8182 7.51255 15.7705 7.46482 15.7705 7.40595C15.7705 7.34782 15.7569 7.24396 15.7141 7.13615C15.6715 7.02888 15.603 6.92491 15.4983 6.85505ZM12.8223 14.9627C12.8549 15.0117 12.8417 15.0779 12.7927 15.1105L11.5226 15.9574C11.4737 15.9901 11.4075 15.9768 11.3749 15.9278C11.3422 15.8788 11.3555 15.8126 11.4044 15.78L12.6745 14.9331C12.7235 14.9005 12.7896 14.9137 12.8223 14.9627ZM12.7221 15.9253C12.7763 15.9022 12.8014 15.8396 12.7783 15.7854C12.7552 15.7313 12.6926 15.7061 12.6385 15.7292L11.5283 16.203C11.4742 16.2261 11.449 16.2887 11.4721 16.3429C11.4952 16.397 11.5578 16.4222 11.6119 16.3991L12.7221 15.9253ZM12.832 16.4733C12.8546 16.5277 12.8288 16.5901 12.7745 16.6127L11.8774 16.9858C11.8231 17.0084 11.7607 16.9826 11.7381 16.9282C11.7155 16.8739 11.7412 16.8115 11.7956 16.7889L12.6927 16.4158C12.747 16.3932 12.8094 16.4189 12.832 16.4733ZM12.7753 17.3052C12.8295 17.2822 12.8547 17.2196 12.8316 17.1654C12.8086 17.1112 12.746 17.086 12.6919 17.109L11.9546 17.4229C11.9005 17.4459 11.8752 17.5086 11.8983 17.5627C11.9213 17.6169 11.9839 17.6421 12.0381 17.6191L12.7753 17.3052ZM12.9382 17.7576C12.9612 17.8118 12.936 17.8744 12.8819 17.8974L12.1446 18.2113C12.0905 18.2344 12.0279 18.2091 12.0048 18.155C11.9818 18.1008 12.007 18.0382 12.0612 18.0151L12.7984 17.7013C12.8526 17.6782 12.9152 17.7034 12.9382 17.7576ZM12.9349 18.5312C12.9891 18.5083 13.0145 18.4458 12.9916 18.3915C12.9687 18.3373 12.9062 18.3119 12.852 18.3348L12.2213 18.6013C12.167 18.6242 12.1417 18.6867 12.1646 18.741C12.1875 18.7952 12.25 18.8206 12.3042 18.7977L12.9349 18.5312ZM12.9414 19.0987C12.9597 19.1547 12.9292 19.2149 12.8733 19.2332L12.4024 19.3871C12.3464 19.4054 12.2863 19.3749 12.268 19.3189C12.2497 19.263 12.2802 19.2028 12.3362 19.1845L12.807 19.0305C12.863 19.0122 12.9231 19.0428 12.9414 19.0987ZM12.9265 19.7129C12.9825 19.6946 13.013 19.6344 12.9947 19.5784C12.9764 19.5225 12.9163 19.4919 12.8603 19.5102L12.3895 19.6642C12.3335 19.6825 12.303 19.7427 12.3213 19.7986C12.3396 19.8546 12.3997 19.8851 12.4557 19.8668L12.9265 19.7129ZM12.3693 20.2452C12.3693 20.1863 12.417 20.1386 12.4758 20.1386H13.7545C13.8134 20.1386 13.8611 20.1863 13.8611 20.2452C13.8611 20.3041 13.8134 20.3518 13.7545 20.3518H12.4758C12.417 20.3518 12.3693 20.3041 12.3693 20.2452ZM12.5307 21.0599C12.4802 21.0296 12.4147 21.046 12.3845 21.0964C12.3542 21.1469 12.3705 21.2124 12.421 21.2427L13.2202 21.7224C13.2707 21.7527 13.3361 21.7363 13.3664 21.6858C13.3967 21.6353 13.3803 21.5699 13.3298 21.5396L12.5307 21.0599ZM13.3348 14.967C13.3651 14.9165 13.4305 14.9001 13.481 14.9304L14.7151 15.6707C14.7655 15.701 14.7819 15.7664 14.7516 15.8169C14.7214 15.8674 14.6559 15.8838 14.6055 15.8535L13.3714 15.1133C13.3209 15.083 13.3046 15.0175 13.3348 14.967ZM13.5219 15.7295C13.468 15.706 13.4052 15.7308 13.3818 15.7848C13.3583 15.8388 13.3831 15.9016 13.437 15.925L14.4047 16.3455C14.4587 16.369 14.5214 16.3442 14.5449 16.2902C14.5683 16.2362 14.5436 16.1734 14.4896 16.15L13.5219 15.7295ZM13.3284 16.4719C13.3518 16.4178 13.4146 16.393 13.4686 16.4164L14.3297 16.7895C14.3837 16.8129 14.4085 16.8757 14.3851 16.9297C14.3617 16.9837 14.299 17.0085 14.245 16.9851L13.3839 16.612C13.3299 16.5886 13.305 16.5259 13.3284 16.4719ZM13.4671 17.0554C13.4128 17.0328 13.3504 17.0585 13.3278 17.1129C13.3052 17.1673 13.331 17.2296 13.3853 17.2522L14.1398 17.5661C14.1942 17.5887 14.2565 17.563 14.2791 17.5086C14.3017 17.4542 14.276 17.3919 14.2217 17.3693L13.4671 17.0554ZM13.2224 17.7558C13.2464 17.7021 13.3095 17.678 13.3632 17.702L14.0644 18.0159C14.1182 18.0399 14.1422 18.103 14.1182 18.1567C14.0941 18.2105 14.0311 18.2346 13.9774 18.2105L13.2761 17.8967C13.2224 17.8726 13.1984 17.8096 13.2224 17.7558ZM13.3577 18.3334C13.3028 18.3124 13.2412 18.3399 13.2201 18.3949C13.1991 18.4499 13.2266 18.5115 13.2816 18.5326L13.823 18.7398C13.878 18.7609 13.9396 18.7334 13.9606 18.6784C13.9816 18.6234 13.9541 18.5618 13.8992 18.5407L13.3577 18.3334ZM13.3274 19.092C13.3494 19.0374 13.4115 19.011 13.4661 19.033L13.8477 19.1869C13.9022 19.209 13.9286 19.2711 13.9066 19.3257C13.8846 19.3803 13.8225 19.4067 13.7679 19.3847L13.3864 19.2307C13.3318 19.2087 13.3054 19.1466 13.3274 19.092ZM13.3655 19.5153C13.3124 19.49 13.2488 19.5125 13.2235 19.5657C13.1981 19.6188 13.2207 19.6824 13.2738 19.7078L13.7087 19.915C13.7618 19.9404 13.8254 19.9178 13.8507 19.8646C13.876 19.8115 13.8535 19.7479 13.8004 19.7226L13.3655 19.5153ZM12.4758 20.7782C12.4758 20.7193 12.5235 20.6716 12.5824 20.6716H13.7545C13.8134 20.6716 13.8611 20.7193 13.8611 20.7782C13.8611 20.8371 13.8134 20.8848 13.7545 20.8848H12.5824C12.5235 20.8848 12.4758 20.8371 12.4758 20.7782ZM12.1967 13.8465C12.2992 13.656 12.593 13.4229 13.1152 13.4229C13.3712 13.4229 13.5453 13.4921 13.6687 13.5772C13.7939 13.6636 13.8728 13.7702 13.9336 13.8571C13.9674 13.9053 14.0338 13.917 14.082 13.8833C14.1302 13.8495 14.142 13.7831 14.1082 13.7348C14.0447 13.6441 13.9478 13.5108 13.7897 13.4017C13.6298 13.2914 13.4133 13.2097 13.1152 13.2097C12.5292 13.2097 12.1552 13.4739 12.0091 13.7454C11.9812 13.7973 12.0005 13.8619 12.0524 13.8898C12.1042 13.9177 12.1688 13.8983 12.1967 13.8465ZM12.9021 14.169C12.7634 14.169 12.6332 14.2156 12.5512 14.2977C12.5096 14.3394 12.4421 14.3394 12.4005 14.2977C12.3589 14.2561 12.3589 14.1886 12.4005 14.147C12.5315 14.0159 12.7211 13.9559 12.9021 13.9559C12.9609 13.9559 13.0086 14.0036 13.0086 14.0625C13.0086 14.1213 12.9609 14.169 12.9021 14.169ZM13.4128 14.1911C13.4001 14.1784 13.3907 14.1746 13.3824 14.1725C13.3705 14.1696 13.3569 14.169 13.3283 14.169C13.2694 14.169 13.2217 14.1213 13.2217 14.0625C13.2217 14.0036 13.2694 13.9559 13.3283 13.9559L13.3318 13.9558C13.3871 13.9558 13.4789 13.9557 13.5635 14.0404C13.6051 14.082 13.6051 14.1495 13.5635 14.1911C13.5219 14.2328 13.4544 14.2328 13.4128 14.1911ZM13.0619 12.73C12.6234 12.73 12.3998 12.9008 12.3294 12.9712C12.2878 13.0128 12.2203 13.0128 12.1787 12.9712C12.1371 12.9295 12.1371 12.862 12.1787 12.8204C12.286 12.7132 12.5627 12.5168 13.0619 12.5168C13.555 12.5168 13.8193 12.6795 13.9415 12.8199C13.9801 12.8643 13.9754 12.9316 13.931 12.9703C13.8867 13.0089 13.8193 13.0043 13.7807 12.9599C13.707 12.8751 13.5065 12.73 13.0619 12.73ZM12.3739 12.1795C12.4045 12.1551 12.4947 12.1051 12.6244 12.061C12.7514 12.0178 12.906 11.9838 13.0619 11.9838C13.371 11.9838 13.5857 12.1176 13.6868 12.185C13.7357 12.2177 13.8019 12.2044 13.8345 12.1554C13.8672 12.1064 13.854 12.0403 13.805 12.0076C13.693 11.9329 13.4348 11.7706 13.0619 11.7706C12.8768 11.7706 12.6986 11.8106 12.5558 11.8592C12.4156 11.9069 12.299 11.9665 12.2408 12.0131C12.1948 12.0498 12.1874 12.1169 12.2242 12.1629C12.2609 12.2089 12.328 12.2163 12.3739 12.1795ZM13 10.6039C12.5163 10.6039 12.2423 10.8058 12.1761 10.8854C12.1384 10.9306 12.0712 10.9367 12.026 10.899C11.9808 10.8613 11.9747 10.7941 12.0124 10.7489C12.1237 10.6152 12.4607 10.3907 13 10.3907C13.533 10.3907 13.868 10.5753 13.9811 10.6884C14.0227 10.7301 14.0227 10.7976 13.9811 10.8392C13.9395 10.8808 13.872 10.8808 13.8304 10.8392C13.7658 10.7746 13.4899 10.6039 13 10.6039ZM12.2573 11.5471C12.3921 11.4628 12.7412 11.2968 13.0533 11.2968C13.3617 11.2968 13.6367 11.46 13.7309 11.5386C13.7762 11.5763 13.8433 11.5702 13.881 11.525C13.9187 11.4797 13.9126 11.4125 13.8674 11.3748C13.7485 11.2757 13.4268 11.0836 13.0533 11.0836C12.6833 11.0836 12.2936 11.273 12.1443 11.3663C12.0944 11.3975 12.0793 11.4633 12.1104 11.5132C12.1416 11.5631 12.2074 11.5783 12.2573 11.5471Z" fill="white"/>
    </g>
    <defs>
        <clipPath id="clip0_19_15897">
            <rect width="18.2213" height="18.2213" fill="white" transform="translate(3.94238 4.68848)"/>
        </clipPath>
    </defs>
</svg>
