<svg width="136" height="41" viewBox="0 0 136 41" fill="none" xmlns="http://www.w3.org/2000/svg">
    <rect x="0.5" y="0.5" width="135" height="40" rx="9.5" fill="#8E8EA9" stroke="#8E8EA9"/>
    <path d="M46.4811 30.1975H48.6227L44.9907 20.1296H42.632L39 30.1975H41.1271L41.7928 28.2819H45.8155L46.4811 30.1975ZM45.2656 26.6687H42.3426L43.8041 22.463L45.2656 26.6687Z" fill="white"/>
    <path d="M52.0061 23.3704V22.2181H49.9803V34H52.0061V29.0597C52.4981 29.7078 53.3953 30.3272 54.6542 30.3272C56.7089 30.3272 58.3151 28.6708 58.3151 26.179C58.3151 23.6872 56.7089 22.0885 54.6542 22.0885C53.4097 22.0885 52.4836 22.6934 52.0061 23.3704ZM56.2459 26.179C56.2459 27.6914 55.2185 28.5556 54.1188 28.5556C53.0335 28.5556 52.0061 27.7202 52.0061 26.2078C52.0061 24.6955 53.0335 23.8601 54.1188 23.8601C55.2185 23.8601 56.2459 24.6667 56.2459 26.179Z" fill="white"/>
    <path d="M61.8131 23.3704V22.2181H59.7872V34H61.8131V29.0597C62.3051 29.7078 63.2022 30.3272 64.4611 30.3272C66.5159 30.3272 68.1221 28.6708 68.1221 26.179C68.1221 23.6872 66.5159 22.0885 64.4611 22.0885C63.2167 22.0885 62.2906 22.6934 61.8131 23.3704ZM66.0528 26.179C66.0528 27.6914 65.0255 28.5556 63.9257 28.5556C62.8405 28.5556 61.8131 27.7202 61.8131 26.2078C61.8131 24.6955 62.8405 23.8601 63.9257 23.8601C65.0255 23.8601 66.0528 24.6667 66.0528 26.179Z" fill="white"/>
    <path d="M80.1036 27.2881C80.1036 23.7449 74.9233 24.8683 74.9233 22.8519C74.9233 22.0309 75.5166 21.642 76.3125 21.6708C77.1807 21.6852 77.7161 22.2037 77.7595 22.8663H79.9879C79.8577 21.0514 78.4396 20 76.3703 20C74.2866 20 72.8107 21.0946 72.8107 22.9095C72.7962 26.5535 78.0055 25.2428 78.0055 27.4177C78.0055 28.1379 77.4411 28.642 76.4861 28.642C75.5455 28.642 75.0101 28.1091 74.9523 27.3025H72.7817C72.8107 29.2037 74.4313 30.2984 76.5295 30.2984C78.8303 30.2984 80.1036 28.8724 80.1036 27.2881Z" fill="white"/>
    <path d="M82.1783 27.7202C82.1783 29.5494 83.2057 30.1975 84.7395 30.1975H86.0129V28.4979H85.0724C84.4357 28.4979 84.2186 28.2675 84.2186 27.7346V23.8745H86.0129V22.2181H84.2186V20.2449H82.1783V22.2181H81.2233V23.8745H82.1783V27.7202Z" fill="white"/>
    <path d="M95.2116 26.2078C95.2116 23.6872 93.4028 22.0885 91.0875 22.0885C88.7723 22.0885 86.9635 23.6872 86.9635 26.2078C86.9635 28.714 88.7144 30.3272 91.0297 30.3272C93.3594 30.3272 95.2116 28.714 95.2116 26.2078ZM89.0183 26.2078C89.0183 24.6091 89.9878 23.8457 91.0586 23.8457C92.1294 23.8457 93.1278 24.6091 93.1278 26.2078C93.1278 27.7922 92.1005 28.57 91.0297 28.57C89.9444 28.57 89.0183 27.7922 89.0183 26.2078Z" fill="white"/>
    <path d="M98.7234 26.2222C98.7234 24.6811 99.4469 24.2202 100.648 24.2202H101.183V22.1029C100.069 22.1029 99.2299 22.6358 98.7234 23.4568V22.2181H96.6976V30.1975H98.7234V26.2222Z" fill="white"/>
    <path d="M105.992 23.7449C107.034 23.7449 107.873 24.4074 107.902 25.4588H104.096C104.255 24.3642 105.022 23.7449 105.992 23.7449ZM109.797 27.6914H107.612C107.352 28.2243 106.874 28.6564 106.006 28.6564C104.993 28.6564 104.183 27.9938 104.082 26.8128H109.942C109.986 26.5535 110 26.2942 110 26.035C110 23.6584 108.365 22.0885 106.05 22.0885C103.677 22.0885 102.027 23.6872 102.027 26.2078C102.027 28.714 103.72 30.3272 106.05 30.3272C108.032 30.3272 109.363 29.1605 109.797 27.6914Z" fill="white"/>
    <path d="M41.0246 9.40187H39V15.9159H41.0246C43.1611 15.9159 44.4766 14.6916 44.4766 12.6729C44.4766 10.6542 43.1611 9.40187 41.0246 9.40187ZM39.849 15.215V10.0935H41.0246C42.7226 10.0935 43.6089 11.0841 43.6089 12.6729C43.6089 14.2617 42.7226 15.215 41.0246 15.215H39.849Z" fill="#EFF3FF"/>
    <path d="M50.4479 13.3458C50.4479 11.729 49.319 10.7103 47.8636 10.7103C46.4174 10.7103 45.2792 11.729 45.2792 13.3458C45.2792 14.972 46.3801 16 47.8262 16C49.2817 16 50.4479 14.972 50.4479 13.3458ZM46.1469 13.3458C46.1469 12.0561 46.9586 11.4486 47.8542 11.4486C48.7312 11.4486 49.5802 12.0561 49.5802 13.3458C49.5802 14.6449 48.7126 15.2523 47.8262 15.2523C46.9399 15.2523 46.1469 14.6449 46.1469 13.3458Z" fill="#EFF3FF"/>
    <path d="M52.5625 15.9159H53.4395L54.671 11.8505L55.9025 15.9159H56.7795L58.3749 10.7944H57.5352L56.3783 15.1028L55.1375 10.7944H54.2698L53.001 15.0935L51.8254 10.7944H50.9578L52.5625 15.9159Z" fill="#EFF3FF"/>
    <path d="M62.9587 15.9159H63.7984V12.8972C63.7984 11.4299 62.8934 10.7009 61.7085 10.7009C61.0181 10.7009 60.4024 10.9907 60.0665 11.5234V10.7944H59.2175V15.9159H60.0665V13.0841C60.0665 11.9813 60.6636 11.4393 61.5313 11.4393C62.3896 11.4393 62.9587 11.972 62.9587 13.0187V15.9159Z" fill="#EFF3FF"/>
    <path d="M65.1853 15.9159H66.0343V9H65.1853V15.9159Z" fill="#EFF3FF"/>
    <path d="M72.3327 13.3458C72.3327 11.729 71.2038 10.7103 69.7484 10.7103C68.3023 10.7103 67.164 11.729 67.164 13.3458C67.164 14.972 68.2649 16 69.7111 16C71.1665 16 72.3327 14.972 72.3327 13.3458ZM68.0317 13.3458C68.0317 12.0561 68.8434 11.4486 69.739 11.4486C70.616 11.4486 71.4651 12.0561 71.4651 13.3458C71.4651 14.6449 70.5974 15.2523 69.7111 15.2523C68.8247 15.2523 68.0317 14.6449 68.0317 13.3458Z" fill="#EFF3FF"/>
    <path d="M73.1318 13.3364C73.1318 14.9252 74.1861 16 75.5482 16C76.4905 16 77.1529 15.514 77.4608 14.9626V15.9159H78.3191V10.7944H77.4608V11.729C77.1623 11.1963 76.5092 10.7103 75.5575 10.7103C74.1861 10.7103 73.1318 11.7383 73.1318 13.3364ZM77.4608 13.3458C77.4608 14.5514 76.6584 15.2523 75.7255 15.2523C74.7925 15.2523 73.9995 14.5421 73.9995 13.3364C73.9995 12.1308 74.7925 11.4486 75.7255 11.4486C76.6584 11.4486 77.4608 12.1589 77.4608 13.3458Z" fill="#EFF3FF"/>
    <path d="M79.4367 13.3364C79.4367 14.9252 80.4909 16 81.8624 16C82.7954 16 83.4578 15.5234 83.7657 14.9533V15.9159H84.624V9H83.7657V11.7103C83.4111 11.1215 82.6741 10.7103 81.8717 10.7103C80.4909 10.7103 79.4367 11.7383 79.4367 13.3364ZM83.7657 13.3458C83.7657 14.5514 82.9633 15.2523 82.0303 15.2523C81.0974 15.2523 80.3043 14.5421 80.3043 13.3364C80.3043 12.1308 81.0974 11.4486 82.0303 11.4486C82.9633 11.4486 83.7657 12.1589 83.7657 13.3458Z" fill="#EFF3FF"/>
    <path d="M93.3976 13.3458C93.3976 11.729 92.2687 10.7103 90.8132 10.7103C89.3671 10.7103 88.2289 11.729 88.2289 13.3458C88.2289 14.972 89.3298 16 90.7759 16C92.2313 16 93.3976 14.972 93.3976 13.3458ZM89.0965 13.3458C89.0965 12.0561 89.9082 11.4486 90.8039 11.4486C91.6809 11.4486 92.5299 12.0561 92.5299 13.3458C92.5299 14.6449 91.6622 15.2523 90.7759 15.2523C89.8896 15.2523 89.0965 14.6449 89.0965 13.3458Z" fill="#EFF3FF"/>
    <path d="M98.2551 15.9159H99.0948V12.8972C99.0948 11.4299 98.1898 10.7009 97.0049 10.7009C96.3145 10.7009 95.6987 10.9907 95.3629 11.5234V10.7944H94.5138V15.9159H95.3629V13.0841C95.3629 11.9813 95.96 11.4393 96.8276 11.4393C97.686 11.4393 98.2551 11.972 98.2551 13.0187V15.9159Z" fill="#EFF3FF"/>
    <path d="M103.156 14.514C103.156 15.5421 103.669 15.9159 104.574 15.9159H105.339V15.1963H104.714C104.191 15.1963 104.005 15.0187 104.005 14.514V11.4953H105.339V10.7944H104.005V9.50467H103.156V10.7944H102.493V11.4953H103.156V14.514Z" fill="#EFF3FF"/>
    <path d="M106.367 15.9159H107.216V13.0841C107.216 11.9813 107.813 11.4393 108.681 11.4393C109.539 11.4393 110.109 11.972 110.109 13.0187V15.9159H110.948V12.8972C110.948 11.4299 110.043 10.7009 108.905 10.7009C108.187 10.7009 107.552 10.9907 107.216 11.5327V9H106.367V15.9159Z" fill="#EFF3FF"/>
    <path d="M114.509 11.4299C115.386 11.4299 116.132 11.9813 116.123 12.9813H112.895C112.988 11.9813 113.679 11.4299 114.509 11.4299ZM116.897 14.3364H115.983C115.796 14.8879 115.311 15.2804 114.546 15.2804C113.679 15.2804 112.951 14.7103 112.886 13.6729H116.972C116.991 13.4953 117 13.3458 117 13.1589C117 11.757 116.03 10.7103 114.546 10.7103C113.054 10.7103 112.018 11.729 112.018 13.3458C112.018 14.972 113.091 16 114.546 16C115.815 16 116.636 15.271 116.897 14.3364Z" fill="#EFF3FF"/>
    <path d="M30.5808 26.7033C30.2218 27.5418 29.7967 28.3136 29.3043 29.0232C28.633 29.9906 28.0834 30.6602 27.6598 31.032C27.0032 31.6424 26.2997 31.955 25.5464 31.9728C25.0056 31.9728 24.3534 31.8172 23.5942 31.5017C22.8325 31.1876 22.1325 31.032 21.4925 31.032C20.8212 31.032 20.1013 31.1876 19.3312 31.5017C18.56 31.8172 17.9387 31.9816 17.4637 31.9979C16.7413 32.0291 16.0213 31.7076 15.3025 31.032C14.8438 30.6276 14.27 29.9343 13.5826 28.9521C12.8451 27.9032 12.2388 26.687 11.7637 25.3004C11.255 23.8026 11 22.3523 11 20.9482C11 19.3398 11.3438 17.9526 12.0325 16.7901C12.5738 15.8564 13.2939 15.1198 14.1951 14.5791C15.0963 14.0383 16.0701 13.7628 17.1187 13.7452C17.6925 13.7452 18.445 13.9246 19.38 14.2771C20.3125 14.6309 20.9112 14.8103 21.1737 14.8103C21.3699 14.8103 22.035 14.6005 23.1625 14.1823C24.2288 13.7945 25.1287 13.6339 25.8659 13.6972C27.8636 13.8601 29.3644 14.6561 30.3625 16.0901C28.5758 17.1843 27.6921 18.7169 27.7097 20.6829C27.7258 22.2142 28.2754 23.4886 29.3556 24.5004C29.8451 24.97 30.3918 25.333 31 25.5907C30.8681 25.9774 30.7289 26.3477 30.5808 26.7033ZM25.9993 8.48014C25.9993 9.68041 25.5654 10.8011 24.7007 11.8384C23.6572 13.0716 22.395 13.7841 21.0262 13.6717C21.0088 13.5277 20.9987 13.3761 20.9987 13.2169C20.9987 12.0646 21.4949 10.8315 22.3762 9.82321C22.8162 9.3127 23.3758 8.88823 24.0544 8.54962C24.7315 8.21605 25.372 8.03159 25.9744 8C25.9919 8.16046 25.9993 8.32093 25.9993 8.48012V8.48014Z" fill="white"/>
</svg>
