<svg width="15" height="16" viewBox="0 0 15 16" fill="none" xmlns="http://www.w3.org/2000/svg">
    <path d="M8.13145 2.3252L11.8189 3.9627C12.8814 4.43144 12.8814 5.20644 11.8189 5.67519L8.13145 7.31269C7.7127 7.50019 7.0252 7.50019 6.60645 7.31269L2.91895 5.67519C1.85645 5.20644 1.85645 4.43144 2.91895 3.9627L6.60645 2.3252C7.0252 2.1377 7.7127 2.1377 8.13145 2.3252Z" stroke="white" stroke-width="1.2" stroke-linecap="round" stroke-linejoin="round"/>
    <path d="M1.875 7.375C1.875 7.9 2.26875 8.50625 2.75 8.71875L6.99375 10.6063C7.31875 10.75 7.6875 10.75 8.00625 10.6063L12.25 8.71875C12.7313 8.50625 13.125 7.9 13.125 7.375" stroke="white" stroke-width="1.2" stroke-linecap="round" stroke-linejoin="round"/>
    <path d="M1.875 10.5C1.875 11.0813 2.21875 11.6062 2.75 11.8437L6.99375 13.7313C7.31875 13.875 7.6875 13.875 8.00625 13.7313L12.25 11.8437C12.7813 11.6062 13.125 11.0813 13.125 10.5" stroke="white" stroke-width="1.2" stroke-linecap="round" stroke-linejoin="round"/>
</svg>
