<svg width="15" height="15" viewBox="0 0 15 15" fill="none" xmlns="http://www.w3.org/2000/svg">
    <path d="M14.7756 9.31429C13.774 13.3322 9.70448 15.7774 5.6861 14.7755C1.66942 13.7738 -0.775796 9.70405 0.226323 5.68648C1.22756 1.66814 5.29704 -0.777254 9.31417 0.224426C13.3322 1.2261 15.7773 5.29628 14.7755 9.31436L14.7756 9.31429H14.7756Z" fill="#F7931A"/>
    <path fill-rule="evenodd" clip-rule="evenodd" d="M10.808 6.43146C10.9573 5.43337 10.1974 4.89686 9.15833 4.53896L9.49541 3.18696L8.67241 2.98189L8.34427 4.29829C8.12791 4.24433 7.90572 4.19348 7.68488 4.14307L8.0154 2.81799L7.19291 2.61292L6.85565 3.96447C6.6766 3.92371 6.50075 3.88342 6.33014 3.84097L6.33109 3.83671L5.19615 3.5533L4.97723 4.43232C4.97723 4.43232 5.58782 4.57228 5.57496 4.5809C5.90823 4.66408 5.96849 4.88469 5.95849 5.05956L5.57452 6.5998C5.59746 6.60563 5.62723 6.61406 5.66008 6.62726L5.6362 6.6213L5.63618 6.62129C5.61587 6.61621 5.59476 6.61093 5.57309 6.60574L5.03489 8.7634C4.99416 8.86465 4.89078 9.0166 4.65778 8.9589C4.66602 8.97085 4.05961 8.80962 4.05961 8.80962L3.651 9.75169L4.722 10.0187C4.83928 10.0481 4.95517 10.0783 5.06989 10.1082L5.07012 10.1083C5.15022 10.1291 5.22975 10.1499 5.30877 10.1701L4.96821 11.5376L5.79026 11.7427L6.12752 10.3897C6.3521 10.4506 6.57004 10.5069 6.78339 10.5599L6.44726 11.9065L7.2703 12.1116L7.61083 10.7466C9.01422 11.0122 10.0695 10.9051 10.5136 9.63578C10.8715 8.61379 10.4958 8.02431 9.75749 7.6399C10.2952 7.51588 10.7003 7.16219 10.8083 6.43157L10.808 6.43139L10.808 6.43146ZM8.92763 9.06822C8.69428 10.0059 7.22661 9.61822 6.55511 9.44086C6.4947 9.4249 6.44074 9.41065 6.39469 9.39921L6.84663 7.58751C6.90274 7.60152 6.97131 7.61691 7.04899 7.63434L7.049 7.63434C7.74359 7.79022 9.16671 8.1096 8.92767 9.06822H8.92763ZM7.18832 6.7935C7.74817 6.94291 8.96946 7.26885 9.18216 6.41665H9.18223C9.39942 5.54506 8.21253 5.28229 7.63285 5.15395C7.56764 5.13951 7.51011 5.12677 7.46313 5.11506L7.05339 6.75817C7.09208 6.76781 7.13747 6.77993 7.18832 6.7935Z" fill="white"/>
</svg>
