<svg width="16" height="16" viewBox="0 0 16 16" fill="none" xmlns="http://www.w3.org/2000/svg">
    <path d="M10.5 8.5625V11.1875C10.5 13.375 9.625 14.25 7.4375 14.25H4.8125C2.625 14.25 1.75 13.375 1.75 11.1875V8.5625C1.75 6.375 2.625 5.5 4.8125 5.5H7.4375C9.625 5.5 10.5 6.375 10.5 8.5625Z" stroke="#C0C0CF" stroke-width="1.2" stroke-linecap="round" stroke-linejoin="round"/>
    <path d="M14.25 4.8125V7.4375C14.25 9.625 13.375 10.5 11.1875 10.5H10.5V8.5625C10.5 6.375 9.625 5.5 7.4375 5.5H5.5V4.8125C5.5 2.625 6.375 1.75 8.5625 1.75H11.1875C13.375 1.75 14.25 2.625 14.25 4.8125Z" stroke="#C0C0CF" stroke-width="1.2" stroke-linecap="round" stroke-linejoin="round"/>
</svg>
