<svg width="136" height="41" viewBox="0 0 136 41" fill="none" xmlns="http://www.w3.org/2000/svg">
    <rect x="0.5" y="0.5" width="135" height="40" rx="9.5" fill="#8E8EA9" stroke="#8E8EA9"/>
    <path d="M47.254 20.4561C44.4623 20.4561 42.334 22.5015 42.334 25.3899C42.334 28.2784 44.4623 30.31 47.2678 30.31C49.8384 30.31 51.5936 28.5133 51.9806 26.5508V24.8648H46.7565V26.3435H50.0734C49.7831 27.7117 48.8295 28.5686 47.3369 28.5686C45.5403 28.5686 44.3241 27.3524 44.3241 25.3899C44.3241 23.4689 45.5265 22.2389 47.254 22.2389C48.2767 22.2389 49.0783 22.6673 49.5206 23.4827H51.7456C51.1237 21.5479 49.41 20.4561 47.254 20.4561Z" fill="white"/>
    <path d="M60.8059 26.3988C60.8059 23.9803 59.0784 22.4462 56.8671 22.4462C54.6559 22.4462 52.9284 23.9803 52.9284 26.3988C52.9284 28.8036 54.6006 30.3514 56.8119 30.3514C59.0369 30.3514 60.8059 28.8036 60.8059 26.3988ZM54.8908 26.3988C54.8908 24.8648 55.8168 24.1323 56.8395 24.1323C57.8622 24.1323 58.8158 24.8648 58.8158 26.3988C58.8158 27.9191 57.8346 28.6654 56.8119 28.6654C55.7753 28.6654 54.8908 27.9191 54.8908 26.3988Z" fill="white"/>
    <path d="M69.6191 26.3988C69.6191 23.9803 67.8916 22.4462 65.6803 22.4462C63.4691 22.4462 61.7415 23.9803 61.7415 26.3988C61.7415 28.8036 63.4138 30.3514 65.625 30.3514C67.8501 30.3514 69.6191 28.8036 69.6191 26.3988ZM63.704 26.3988C63.704 24.8648 64.63 24.1323 65.6527 24.1323C66.6754 24.1323 67.629 24.8648 67.629 26.3988C67.629 27.9191 66.6477 28.6654 65.625 28.6654C64.5885 28.6654 63.704 27.9191 63.704 26.3988Z" fill="white"/>
    <path d="M70.5409 26.3712C70.5409 28.7621 72.0887 30.3514 74.0374 30.3514C75.2398 30.3514 76.1105 29.7572 76.5665 29.0938V30.2823C76.5665 31.7058 75.7373 32.3139 74.6731 32.3139C73.7057 32.3139 72.9871 31.8578 72.7936 31.1668H70.8725C71.066 32.922 72.5724 34 74.7284 34C77.2437 34 78.5152 32.3554 78.5152 30.2823V22.5706H76.5665V23.6624C76.1105 22.999 75.2398 22.4462 74.0374 22.4462C72.0887 22.4462 70.5409 23.9803 70.5409 26.3712ZM76.5665 26.3988C76.5665 27.85 75.5991 28.6515 74.5349 28.6515C73.4984 28.6515 72.5172 27.8223 72.5172 26.3712C72.5172 24.92 73.4984 24.1461 74.5349 24.1461C75.5991 24.1461 76.5665 24.9477 76.5665 26.3988Z" fill="white"/>
    <path d="M80.4049 30.227H82.3398V20H80.4049V30.227Z" fill="white"/>
    <path d="M87.5406 24.0355C88.5357 24.0355 89.3373 24.6713 89.3649 25.6802H85.7302C85.8822 24.6298 86.6147 24.0355 87.5406 24.0355ZM91.1754 27.8223H89.0885C88.8397 28.3337 88.3837 28.7483 87.5544 28.7483C86.587 28.7483 85.8131 28.1125 85.7163 26.9793H91.3136C91.355 26.7305 91.3689 26.4817 91.3689 26.233C91.3689 23.9526 89.8072 22.4462 87.5959 22.4462C85.3294 22.4462 83.7539 23.9803 83.7539 26.3988C83.7539 28.8036 85.3708 30.3514 87.5959 30.3514C89.4893 30.3514 90.7608 29.232 91.1754 27.8223Z" fill="white"/>
    <path d="M98.0091 24.9615V22.156H99.5432C100.635 22.156 101.119 22.6811 101.119 23.5656C101.119 24.4225 100.635 24.9615 99.5432 24.9615H98.0091ZM103.109 23.5656C103.109 21.8934 101.948 20.5805 99.6261 20.5805H96.0742V30.227H98.0091V26.5232H99.6261C102.114 26.5232 103.109 25.0306 103.109 23.5656Z" fill="white"/>
    <path d="M104.483 30.227H106.417V20H104.483V30.227Z" fill="white"/>
    <path d="M107.831 26.3712C107.831 28.7621 109.379 30.3514 111.314 30.3514C112.53 30.3514 113.401 29.771 113.857 29.1076V30.227H115.806V22.5706H113.857V23.6624C113.401 23.0267 112.558 22.4462 111.328 22.4462C109.379 22.4462 107.831 23.9803 107.831 26.3712ZM113.857 26.3988C113.857 27.85 112.89 28.6515 111.826 28.6515C110.789 28.6515 109.808 27.8223 109.808 26.3712C109.808 24.92 110.789 24.1461 111.826 24.1461C112.89 24.1461 113.857 24.9477 113.857 26.3988Z" fill="white"/>
    <path d="M120.957 27.9191L118.981 22.5706H116.811L119.879 30.0336L118.221 33.848H120.28L125.02 22.5706H122.961L120.957 27.9191Z" fill="white"/>
    <path d="M45.1811 9.50909C43.3997 9.50909 42 10.8455 42 12.7455C42 14.6455 43.3997 15.9727 45.1811 15.9727C46.8989 15.9727 48.1441 14.7091 48.2895 13.1364V12.5H44.8812V13.1727H47.4079C47.2807 14.4273 46.4263 15.2273 45.1811 15.2273C43.845 15.2273 42.8453 14.2636 42.8453 12.7455C42.8453 11.2182 43.845 10.2545 45.1811 10.2545C46.0718 10.2545 46.7626 10.6818 47.108 11.4182H48.0987C47.626 10.2 46.5172 9.50909 45.1811 9.50909Z" fill="#EFF3FF"/>
    <path d="M51.5008 11.5545C52.3552 11.5545 53.0823 12.0909 53.0732 13.0636H49.9284C50.0193 12.0909 50.6919 11.5545 51.5008 11.5545ZM53.8276 14.3818H52.9369C52.7551 14.9182 52.2825 15.3 51.5372 15.3C50.6919 15.3 49.983 14.7455 49.9193 13.7364H53.9003C53.9185 13.5636 53.9276 13.4182 53.9276 13.2364C53.9276 11.8727 52.9823 10.8545 51.5372 10.8545C50.0829 10.8545 49.0741 11.8455 49.0741 13.4182C49.0741 15 50.1193 16 51.5372 16C52.7733 16 53.5731 15.2909 53.8276 14.3818Z" fill="#EFF3FF"/>
    <path d="M55.2011 14.5545C55.2011 15.5545 55.701 15.9182 56.5826 15.9182H57.3279V15.2182H56.7189C56.2099 15.2182 56.0282 15.0455 56.0282 14.5545V11.6182H57.3279V10.9364H56.0282V9.68182H55.2011V10.9364H54.5558V11.6182H55.2011V14.5545Z" fill="#EFF3FF"/>
    <path d="M60.7531 15.9182H61.5802V10.9364H60.7531V15.9182ZM61.1803 10.1273C61.4802 10.1273 61.7256 9.88182 61.7256 9.56364C61.7256 9.24545 61.4802 9 61.1803 9C60.8622 9 60.6168 9.24545 60.6168 9.56364C60.6168 9.88182 60.8622 10.1273 61.1803 10.1273Z" fill="#EFF3FF"/>
    <path d="M63.1716 14.5545C63.1716 15.5545 63.6715 15.9182 64.5531 15.9182H65.2984V15.2182H64.6894C64.1805 15.2182 63.9987 15.0455 63.9987 14.5545V11.6182H65.2984V10.9364H63.9987V9.68182H63.1716V10.9364H62.5263V11.6182H63.1716V14.5545Z" fill="#EFF3FF"/>
    <path d="M73.4499 13.4182C73.4499 11.8455 72.3501 10.8545 70.9322 10.8545C69.5235 10.8545 68.4146 11.8455 68.4146 13.4182C68.4146 15 69.4871 16 70.8959 16C72.3138 16 73.4499 15 73.4499 13.4182ZM69.2599 13.4182C69.2599 12.1636 70.0506 11.5727 70.9232 11.5727C71.7775 11.5727 72.6046 12.1636 72.6046 13.4182C72.6046 14.6818 71.7593 15.2727 70.8959 15.2727C70.0324 15.2727 69.2599 14.6818 69.2599 13.4182Z" fill="#EFF3FF"/>
    <path d="M78.182 15.9182H79V12.9818C79 11.5545 78.1184 10.8455 76.9641 10.8455C76.2915 10.8455 75.6916 11.1273 75.3644 11.6455V10.9364H74.5373V15.9182H75.3644V13.1636C75.3644 12.0909 75.9461 11.5636 76.7914 11.5636C77.6276 11.5636 78.182 12.0818 78.182 13.1V15.9182Z" fill="#EFF3FF"/>
    <path opacity="0.5" fill-rule="evenodd" clip-rule="evenodd" d="M11.9797 7.28333C11.711 7.60936 11.5566 8.11116 11.5566 8.76322V31.9567C11.5566 32.6087 11.711 33.1105 11.9897 33.4252L12.0625 33.4947L23.5711 20.4989V20.2069L12.0525 7.21387L11.9797 7.28333Z" fill="white"/>
    <path fill-rule="evenodd" clip-rule="evenodd" d="M27.398 24.8507L23.5593 20.5145V20.2112L27.3993 15.875L27.4821 15.9331L32.0238 18.8475C33.3243 19.6754 33.3243 21.039 32.0238 21.8782L27.4821 24.7926C27.4809 24.7926 27.398 24.8507 27.398 24.8507Z" fill="white"/>
    <path opacity="0.7" fill-rule="evenodd" clip-rule="evenodd" d="M27.4836 24.7959L23.562 20.3662L11.9807 33.4442C12.4037 33.9574 13.1155 34.0155 13.9114 33.5137L27.4836 24.7959Z" fill="white"/>
    <path opacity="0.9" fill-rule="evenodd" clip-rule="evenodd" d="M27.4836 15.9343L13.9114 7.22786C13.1168 6.71472 12.4037 6.78418 11.9807 7.29732L23.5608 20.3627L27.4836 15.9343Z" fill="white"/>
    <path opacity="0.2" fill-rule="evenodd" clip-rule="evenodd" d="M27.4005 24.6982L13.9211 33.3465C13.1679 33.8356 12.4964 33.8016 12.0633 33.3579L11.9905 33.4401L12.0633 33.5096C12.4964 33.9518 13.1679 33.9873 13.9211 33.4982L27.4934 24.7918L27.4005 24.6982Z" fill="white"/>
    <path opacity="0.12" fill-rule="evenodd" clip-rule="evenodd" d="M32.0254 21.7299L27.3909 24.7024L27.4737 24.7959L32.0154 21.8815C32.6656 21.4619 32.9857 20.9148 32.9857 20.3662C32.9443 20.868 32.6141 21.3457 32.0254 21.7299Z" fill="white"/>
    <path opacity="0.25" fill-rule="evenodd" clip-rule="evenodd" d="M13.9103 7.3804L32.0242 19.0012C32.6129 19.374 32.9431 19.8631 32.9945 20.3649C32.9945 19.8177 32.6744 19.2691 32.0242 18.8496L13.9103 7.22873C12.6098 6.38956 11.5566 7.08839 11.5566 8.76674V8.91841C11.5566 7.24007 12.6098 6.55257 13.9103 7.3804Z" fill="white"/>
</svg>
