<svg width="45" height="42" viewBox="0 0 45 42" fill="none" xmlns="http://www.w3.org/2000/svg">
    <path fill-rule="evenodd" clip-rule="evenodd" d="M22.2928 0.0934279H19.9302C19.449 0.0934279 18.2502 0.198336 17.3051 0.617966L17.3051 0.617978C16.1238 1.1425 16.1238 1.14251 15.7301 1.27364C15.5691 1.32724 15.0573 1.22747 14.3559 1.09076C13.3414 0.893008 11.9304 0.617966 10.6111 0.617966C8.37975 0.617966 4.44209 3.89633 2.21075 7.30583C-0.0205943 10.7153 -0.676871 13.338 2.07949 15.5673C2.67395 16.0481 3.21956 16.474 3.72687 16.87C5.57184 18.3101 6.91016 19.3547 8.24849 21.2061C9.95481 23.5665 11.1361 23.5665 12.5799 23.5665H14.9425C14.9425 25.2993 14.648 29.4184 13.4896 32.4393L15.2632 33.3683L15.6579 32.7104L15.9211 32.842V33.3683L16.6424 33.6775C17.6401 31.9212 18.2548 30.0575 18.4864 29.0742C18.7489 29.8173 19.3789 32.0378 19.799 34.9752C20.219 37.9126 20.324 39.259 20.324 39.5649C19.8865 39.5649 19.0902 39.801 19.4052 40.7451C19.799 41.9254 22.1616 42.7122 23.8679 40.614C25.2329 38.9355 26.0117 32.134 26.2305 28.943C26.7117 30.2981 28.1468 33.559 30.0369 35.762C31.927 37.9651 34.7621 39.0404 35.9434 39.3027L35.8121 38.647L34.4996 37.8602L34.7621 37.2045C33.7995 36.4177 31.717 33.9524 31.0869 30.3855C30.4569 26.8187 30.2119 24.3533 30.1681 23.5665H32.9245C33.7995 23.5665 35.7071 23.2518 36.3371 21.9929C37.1247 20.4193 38.5685 18.0589 41.7186 16.223C44.8687 14.3871 45.525 11.7644 43.8187 8.87944C42.1124 5.99448 39.4873 2.84725 37.2559 1.53591C35.5701 0.545153 34.3338 0.752063 33.0376 0.969001C32.6181 1.0392 32.1924 1.11045 31.7432 1.1425C31.3901 1.1677 31.0806 1.20258 30.8008 1.23412C29.6243 1.36672 28.9719 1.44026 27.8055 0.486832C27.053 0.0571793 25.8601 0.0674404 23.794 0.0852121C23.3378 0.0891369 22.8389 0.0934279 22.2928 0.0934279Z" fill="#1C202C"/>
    <path fill-rule="evenodd" clip-rule="evenodd" d="M16.474 21.786L18.4392 24.008C17.9151 21.7076 18.7449 18.4313 19.2253 17.0808C19.0506 17.7778 18.7012 19.3288 18.7012 19.9562C18.7012 20.7404 18.7012 22.5702 19.2253 24.7922C19.3979 25.5242 19.599 26.1853 19.8098 26.8783C20.2388 28.2887 20.708 29.8313 21.0594 32.3729C21.4646 35.3036 21.5917 37.6836 21.5998 38.5477C21.5948 38.8325 21.5468 39.4276 21.4473 39.8229C21.3421 40.2411 20.9649 40.4328 20.7894 40.4764L21.1842 40.8685C21.6228 40.8249 22.2946 40.6804 22.8947 40.0843C23.2894 39.6922 23.7055 39.0241 23.7055 38.5013C23.7055 37.7171 23.7844 35.4052 24.2037 32.3729C24.5551 29.8313 25.0243 28.2887 25.4533 26.8783C25.6641 26.1853 25.8652 25.5242 26.0378 24.7922C26.5619 22.5702 26.5619 20.7404 26.5619 19.9562C26.5619 19.3288 26.2125 17.7778 26.0378 17.0808C26.5182 18.4313 27.348 21.7076 26.8239 24.008L28.7891 21.786C28.4397 21.0454 27.61 19.0152 27.0859 16.8194C26.4309 14.0746 26.9549 11.5913 27.61 10.2843C28.134 9.23866 29.0511 8.01878 29.4441 7.53954C28.8327 8.41088 27.5838 10.4934 27.479 11.8527C27.3742 13.212 27.4353 13.8132 27.479 13.9439C27.61 13.5083 27.9768 12.5846 28.396 12.3755C28.9201 12.1141 30.0992 12.7676 29.7061 13.8132C29.3917 14.6497 28.527 14.946 28.134 14.9895C28.265 15.1202 28.6319 15.3816 29.0511 15.3816C29.4703 15.3816 29.7498 15.0331 29.8372 14.8588C29.7935 15.0767 29.6013 15.5908 29.1821 15.9044C28.7629 16.2181 28.396 16.3837 28.265 16.4273C28.265 16.5144 28.3436 16.7148 28.6581 16.8194C28.9725 16.9239 29.4005 16.9501 29.5751 16.9501C29.4878 17.1679 29.2083 17.6297 28.7891 17.7343C28.3698 17.8388 28.1777 17.6907 28.134 17.6036C28.1777 17.9085 28.396 18.4923 28.9201 18.3878C29.5751 18.2571 30.3612 17.3422 30.4922 15.2509C30.6232 13.1597 30.3612 12.3755 29.9682 11.8527C29.5751 11.3299 29.0511 11.3299 28.658 11.3299C28.3436 11.3299 28.003 11.6784 27.872 11.8527C28.003 11.5042 28.4746 10.8332 29.3131 10.9378C29.7323 11.0423 30.0118 11.3299 30.0992 11.4606C30.0992 11.2428 30.0206 10.7025 29.7061 10.2843C29.6891 10.2616 29.6723 10.2395 29.6559 10.2177C29.2919 9.73711 29.0738 9.44912 29.5751 8.32375C30.0992 7.14743 30.4922 6.10182 30.0992 4.27199C29.7061 2.44217 27.4789 1.65796 26.5619 1.65796H22.7631H22.6316H18.7012C17.7842 1.65796 15.557 2.44217 15.1639 4.27199C14.7709 6.10182 15.1639 7.14743 15.688 8.32375C16.1893 9.44912 15.9712 9.73711 15.6073 10.2177C15.5908 10.2395 15.574 10.2616 15.557 10.2843C15.2426 10.7025 15.1639 11.2428 15.1639 11.4606C15.2513 11.3299 15.5308 11.0423 15.95 10.9378C16.7885 10.8332 17.2601 11.5042 17.3911 11.8527C17.2601 11.6784 16.9195 11.3299 16.6051 11.3299C16.212 11.3299 15.688 11.3299 15.2949 11.8527C14.9019 12.3755 14.6399 13.1597 14.7709 15.2509C14.9019 17.3422 15.688 18.2571 16.343 18.3878C16.8671 18.4923 17.0854 17.9085 17.1291 17.6036C17.0854 17.6907 16.8933 17.8388 16.474 17.7343C16.0548 17.6297 15.7753 17.1679 15.688 16.9501C15.8627 16.9501 16.2906 16.9239 16.605 16.8194C16.9195 16.7148 16.9981 16.5144 16.9981 16.4273C16.8671 16.3837 16.5002 16.2181 16.081 15.9044C15.6618 15.5908 15.4696 15.0767 15.4259 14.8588C15.5133 15.0331 15.7928 15.3816 16.212 15.3816C16.6312 15.3816 16.9981 15.1202 17.1291 14.9895C16.7361 14.946 15.8714 14.6497 15.557 13.8132C15.1639 12.7676 16.343 12.1141 16.8671 12.3755C17.2863 12.5846 17.6531 13.5083 17.7841 13.9439C17.8278 13.8132 17.889 13.212 17.7841 11.8527C17.6793 10.4934 16.4304 8.41088 15.819 7.53954C16.212 8.01878 17.1291 9.23866 17.6531 10.2843C18.3082 11.5913 18.8322 14.0746 18.1772 16.8194C17.6531 19.0152 16.8234 21.0454 16.474 21.786Z" fill="white"/>
    <path d="M10.6477 5.9009C8.93227 7.01701 7.5151 8.63947 6.99026 9.35036C7.85398 8.21512 11.0755 7.73276 12.6953 9.77674C14.3335 11.8438 13.7874 13.0066 12.1493 16.1072C10.8388 18.5878 11.3302 21.0166 11.7398 21.9209C10.9207 20.629 8.6273 17.6059 6.00629 15.8488C2.73003 13.6526 1.50143 13.6525 3.00305 9.13074C4.50467 4.60896 9.9651 1.89589 11.4667 2.54186C12.9683 3.18783 12.8318 4.47977 10.6477 5.9009Z" fill="white"/>
    <path d="M34.6155 5.9009C36.3309 7.01701 37.7481 8.63947 38.2729 9.35036C37.4092 8.21512 34.1876 7.73276 32.5678 9.77674C30.9297 11.8438 31.4757 13.0066 33.1139 16.1072C34.4244 18.5878 33.9329 21.0166 33.5234 21.9209C34.3425 20.629 36.6359 17.6059 39.2569 15.8488C42.5332 13.6526 43.7618 13.6525 42.2601 9.13074C40.7585 4.60896 35.2981 1.89589 33.7965 2.54186C32.2948 3.18783 32.4314 4.47977 34.6155 5.9009Z" fill="white"/>
    <path fill-rule="evenodd" clip-rule="evenodd" d="M14.6855 31.75L15.2633 32.0527L15.6581 31.3948L15.9212 31.5264V31.8411C16.0484 31.5467 16.1681 31.2436 16.2784 30.9323C17.4599 27.5966 18.0238 25.894 18.1581 25.4597L16.6812 24.0264C16.3845 25.425 15.59 28.826 14.6855 31.75Z" fill="white"/>
    <path d="M30.7303 32.2354C29.7636 29.2124 28.8953 25.5031 28.582 24.0264L27.1051 25.4597C27.2394 25.894 27.8033 27.5966 28.9848 30.9323C30.1664 34.2681 32.4309 36.6656 33.4156 37.4474L33.6841 37.0565C33.1023 36.709 31.697 35.2584 30.7303 32.2354Z" fill="white"/>
    <path fill-rule="evenodd" clip-rule="evenodd" d="M16.725 3.71915C16.8459 3.6385 16.8786 3.47505 16.798 3.35407C16.7173 3.2331 16.554 3.20041 16.433 3.28106C16.0601 3.52975 15.8345 3.88725 15.7028 4.21906C15.5717 4.54954 15.5264 4.87221 15.5264 5.07967C15.5264 5.22506 15.6442 5.34293 15.7895 5.34293C15.9349 5.34293 16.0527 5.22506 16.0527 5.07967C16.0527 4.93612 16.0863 4.67961 16.192 4.41336C16.2971 4.14845 16.4663 3.89168 16.725 3.71915ZM28.5383 3.85078C28.4174 3.77013 28.3847 3.60668 28.4653 3.4857C28.5459 3.36473 28.7093 3.33204 28.8302 3.41269C29.2031 3.66138 29.4287 4.01888 29.5604 4.35069C29.6916 4.68117 29.7369 5.00384 29.7369 5.2113C29.7369 5.35669 29.6191 5.47456 29.4737 5.47456C29.3284 5.47456 29.2106 5.35669 29.2106 5.2113C29.2106 5.06775 29.1769 4.81124 29.0713 4.54499C28.9661 4.28008 28.797 4.02331 28.5383 3.85078ZM21.9296 23.8738C22.0102 23.9947 21.9775 24.1582 21.8565 24.2388L18.72 26.3303C18.599 26.4109 18.4356 26.3782 18.355 26.2572C18.2744 26.1362 18.3071 25.9728 18.4281 25.8921L21.5646 23.8007C21.6856 23.7201 21.8489 23.7528 21.9296 23.8738ZM21.6823 26.251C21.8159 26.194 21.8781 26.0393 21.8211 25.9056C21.764 25.7719 21.6094 25.7097 21.4757 25.7667L18.7339 26.9368C18.6002 26.9938 18.5381 27.1485 18.5951 27.2822C18.6521 27.4159 18.8067 27.4781 18.9404 27.4211L21.6823 26.251ZM21.9536 27.6044C22.0094 27.7386 21.9458 27.8927 21.8116 27.9485L19.5961 28.8699C19.4619 28.9257 19.3079 28.8622 19.2521 28.7279C19.1963 28.5936 19.2598 28.4396 19.394 28.3837L21.6096 27.4623C21.7438 27.4065 21.8978 27.4701 21.9536 27.6044ZM21.8136 29.6589C21.9474 29.6019 22.0096 29.4473 21.9527 29.3135C21.8958 29.1798 21.7413 29.1174 21.6075 29.1744L19.7868 29.9495C19.653 30.0064 19.5907 30.161 19.6477 30.2948C19.7046 30.4286 19.8591 30.4909 19.9928 30.434L21.8136 29.6589ZM22.2159 30.7761C22.2728 30.9099 22.2105 31.0645 22.0768 31.1214L20.256 31.8966C20.1223 31.9535 19.9677 31.8912 19.9108 31.7574C19.8539 31.6236 19.9162 31.469 20.0499 31.4121L21.8707 30.637C22.0044 30.58 22.159 30.6423 22.2159 30.7761ZM22.2077 32.6866C22.3416 32.6301 22.4043 32.4756 22.3477 32.3417C22.2912 32.2077 22.1368 32.145 22.0029 32.2016L20.4453 32.8598C20.3114 32.9163 20.2487 33.0708 20.3053 33.2047C20.3618 33.3386 20.5162 33.4014 20.6501 33.3448L22.2077 32.6866ZM22.2239 34.0882C22.269 34.2264 22.1936 34.375 22.0555 34.4202L20.8926 34.8004C20.7545 34.8456 20.6059 34.7702 20.5607 34.632C20.5156 34.4938 20.591 34.3451 20.7291 34.3L21.892 33.9197C22.0301 33.8746 22.1787 33.95 22.2239 34.0882ZM22.1871 35.6049C22.3252 35.5597 22.4006 35.411 22.3554 35.2728C22.3103 35.1346 22.1617 35.0592 22.0236 35.1044L20.8607 35.4846C20.7225 35.5298 20.6471 35.6785 20.6923 35.8167C20.7375 35.9549 20.886 36.0303 21.0242 35.9851L22.1871 35.6049ZM20.8109 36.9195C20.8109 36.7742 20.9287 36.6563 21.074 36.6563H24.2319C24.3772 36.6563 24.4951 36.7742 24.4951 36.9195C24.4951 37.0649 24.3772 37.1828 24.2319 37.1828H21.074C20.9287 37.1828 20.8109 37.0649 20.8109 36.9195ZM21.2094 38.9315C21.0848 38.8567 20.9231 38.8971 20.8484 39.0218C20.7736 39.1465 20.814 39.3082 20.9386 39.383L22.9123 40.5677C23.0369 40.6425 23.1986 40.6021 23.2734 40.4774C23.3481 40.3527 23.3077 40.191 23.1831 40.1162L21.2094 38.9315ZM23.1954 23.8844C23.2702 23.7597 23.4318 23.7192 23.5564 23.794L26.6041 25.6222C26.7287 25.6969 26.7692 25.8586 26.6944 25.9833C26.6197 26.108 26.4581 26.1485 26.3334 26.0737L23.2858 24.2456C23.1611 24.1708 23.1207 24.0091 23.1954 23.8844ZM23.6575 25.7674C23.5242 25.7095 23.3692 25.7706 23.3113 25.904C23.2534 26.0374 23.3145 26.1924 23.4478 26.2504L25.8376 27.2887C25.9709 27.3467 26.1259 27.2855 26.1838 27.1522C26.2417 27.0188 26.1806 26.8637 26.0473 26.8058L23.6575 25.7674ZM23.1796 27.6008C23.2374 27.4674 23.3923 27.4061 23.5257 27.4638L25.6523 28.3853C25.7857 28.443 25.8469 28.598 25.7892 28.7315C25.7314 28.8649 25.5765 28.9262 25.4431 28.8684L23.3165 27.947C23.1831 27.8892 23.1219 27.7342 23.1796 27.6008ZM23.5221 29.0419C23.3879 28.9861 23.2339 29.0497 23.1781 29.1839C23.1223 29.3182 23.1859 29.4722 23.3201 29.5281L25.1835 30.3032C25.3177 30.359 25.4717 30.2954 25.5275 30.1612C25.5833 30.0269 25.5198 29.8729 25.3856 29.817L23.5221 29.0419ZM22.9177 30.7717C22.9771 30.639 23.1328 30.5795 23.2654 30.6389L24.9973 31.414C25.1299 31.4734 25.1894 31.6291 25.13 31.7618C25.0707 31.8946 24.915 31.954 24.7823 31.8946L23.0505 31.1195C22.9178 31.0601 22.8584 30.9044 22.9177 30.7717ZM23.252 32.1982C23.1163 32.1463 22.9641 32.2142 22.9122 32.35C22.8602 32.4858 22.9282 32.638 23.0639 32.69L24.401 33.2019C24.5368 33.2538 24.6889 33.1859 24.7408 33.0501C24.7928 32.9143 24.7249 32.7621 24.5891 32.7101L23.252 32.1982ZM23.177 34.0715C23.2314 33.9366 23.3847 33.8714 23.5195 33.9258L24.4619 34.3061C24.5967 34.3604 24.6619 34.5138 24.6075 34.6487C24.5532 34.7835 24.3998 34.8487 24.2651 34.7943L23.3227 34.4141C23.1879 34.3597 23.1227 34.2063 23.177 34.0715ZM23.2711 35.117C23.1399 35.0544 22.9829 35.1101 22.9204 35.2414C22.8579 35.3727 22.9136 35.5298 23.0448 35.5923L24.1187 36.1042C24.2499 36.1667 24.407 36.111 24.4695 35.9797C24.532 35.8485 24.4763 35.6914 24.3451 35.6288L23.2711 35.117ZM21.074 38.2359C21.074 38.0905 21.1918 37.9726 21.3372 37.9726H24.2319C24.3772 37.9726 24.4951 38.0905 24.4951 38.2359C24.4951 38.3812 24.3772 38.4991 24.2319 38.4991H21.3372C21.1918 38.4991 21.074 38.3812 21.074 38.2359ZM20.3847 21.1171C20.6378 20.6468 21.3633 20.0709 22.653 20.0709C23.2852 20.0709 23.7153 20.2419 24.02 20.4521C24.3291 20.6654 24.524 20.9286 24.6742 21.1432C24.7576 21.2624 24.9216 21.2913 25.0407 21.208C25.1598 21.1246 25.1887 20.9604 25.1054 20.8413C24.9486 20.6172 24.7093 20.2881 24.3188 20.0187C23.9239 19.7463 23.3891 19.5443 22.653 19.5443C21.2058 19.5443 20.2821 20.197 19.9213 20.8675C19.8524 20.9955 19.9002 21.1551 20.0282 21.2241C20.1562 21.293 20.3158 21.2451 20.3847 21.1171ZM22.1266 21.9137C21.7841 21.9137 21.4627 22.0288 21.2601 22.2315C21.1573 22.3343 20.9907 22.3343 20.8879 22.2315C20.7852 22.1287 20.7852 21.962 20.8879 21.8592C21.2116 21.5354 21.6797 21.3872 22.1266 21.3872C22.272 21.3872 22.3898 21.505 22.3898 21.6504C22.3898 21.7958 22.272 21.9137 22.1266 21.9137ZM23.3879 21.9682C23.3566 21.9369 23.3333 21.9274 23.3128 21.9223C23.2835 21.9149 23.25 21.9137 23.1793 21.9137C23.0339 21.9137 22.9161 21.7958 22.9161 21.6504C22.9161 21.505 23.0339 21.3872 23.1793 21.3872L23.1879 21.3872C23.3245 21.3871 23.5512 21.3869 23.7601 21.5959C23.8629 21.6987 23.8629 21.8654 23.7601 21.9682C23.6573 22.071 23.4907 22.071 23.3879 21.9682ZM22.5214 18.3597C21.4386 18.3597 20.8863 18.7815 20.7124 18.9554C20.6097 19.0582 20.4431 19.0582 20.3403 18.9554C20.2375 18.8526 20.2375 18.6859 20.3403 18.5831C20.6051 18.3182 21.2884 17.8332 22.5214 17.8332C23.7391 17.8332 24.392 18.2351 24.6936 18.5817C24.789 18.6914 24.7775 18.8577 24.6678 18.9531C24.5582 19.0486 24.392 19.0371 24.2966 18.9274C24.1145 18.7182 23.6194 18.3597 22.5214 18.3597ZM20.8223 17.0003C20.8979 16.9399 21.1207 16.8165 21.4408 16.7076C21.7545 16.6009 22.1364 16.5169 22.5214 16.5169C23.2847 16.5169 23.815 16.8473 24.0646 17.0138C24.1855 17.0945 24.3489 17.0618 24.4295 16.9408C24.5102 16.8198 24.4775 16.6564 24.3566 16.5757C24.0799 16.3912 23.4423 15.9903 22.5214 15.9903C22.0643 15.9903 21.624 16.0891 21.2714 16.2091C20.9252 16.3269 20.6373 16.4741 20.4936 16.5892C20.3801 16.68 20.3617 16.8457 20.4525 16.9592C20.5432 17.0728 20.7088 17.0912 20.8223 17.0003ZM22.3685 13.1091C21.174 13.1091 20.4974 13.6078 20.3338 13.8042C20.2408 13.9159 20.0748 13.931 19.9632 13.8379C19.8515 13.7448 19.8364 13.5788 19.9295 13.4671C20.2045 13.137 21.0366 12.5826 22.3685 12.5826C23.6849 12.5826 24.5122 13.0386 24.7914 13.3179C24.8942 13.4207 24.8942 13.5874 24.7914 13.6902C24.6886 13.793 24.522 13.793 24.4192 13.6902C24.2598 13.5307 23.5783 13.1091 22.3685 13.1091ZM20.5343 15.4384C20.8673 15.2302 21.7295 14.8203 22.5001 14.8203C23.2618 14.8203 23.941 15.2234 24.1737 15.4174C24.2853 15.5105 24.4513 15.4954 24.5443 15.3837C24.6374 15.272 24.6223 15.106 24.5106 15.013C24.217 14.7682 23.4226 14.2938 22.5001 14.2938C21.5864 14.2938 20.624 14.7614 20.2553 14.992C20.1321 15.069 20.0946 15.2314 20.1716 15.3547C20.2487 15.478 20.411 15.5155 20.5343 15.4384Z" fill="#1C202C"/>
</svg>
