<svg width="15" height="16" viewBox="0 0 15 16" fill="none" xmlns="http://www.w3.org/2000/svg">
    <path d="M11.5625 8.40625V10.7187C11.5625 12.6687 9.74375 14.25 7.5 14.25C5.25625 14.25 3.4375 12.6687 3.4375 10.7187V8.40625C3.4375 10.3562 5.25625 11.75 7.5 11.75C9.74375 11.75 11.5625 10.3562 11.5625 8.40625Z" stroke="#1A203F" stroke-width="1.2" stroke-linecap="round" stroke-linejoin="round"/>
    <path d="M11.5625 5.28125C11.5625 5.85 11.4062 6.375 11.1312 6.825C10.4625 7.925 9.0875 8.625 7.5 8.625C5.9125 8.625 4.5375 7.925 3.86875 6.825C3.59375 6.375 3.4375 5.85 3.4375 5.28125C3.4375 4.30625 3.89375 3.425 4.625 2.7875C5.3625 2.14375 6.375 1.75 7.5 1.75C8.625 1.75 9.6375 2.14375 10.375 2.78125C11.1063 3.425 11.5625 4.30625 11.5625 5.28125Z" stroke="#1A203F" stroke-width="1.2" stroke-linecap="round" stroke-linejoin="round"/>
    <path d="M11.5625 5.28125V8.40625C11.5625 10.3563 9.74375 11.75 7.5 11.75C5.25625 11.75 3.4375 10.3563 3.4375 8.40625V5.28125C3.4375 3.33125 5.25625 1.75 7.5 1.75C8.625 1.75 9.6375 2.14375 10.375 2.78125C11.1063 3.425 11.5625 4.30625 11.5625 5.28125Z" stroke="#1A203F" stroke-width="1.2" stroke-linecap="round" stroke-linejoin="round"/>
</svg>
